<svg id="eGjCJrOx9Ez1" xmlns="http://www.w3.org/2000/svg" xmlns:xlink="http://www.w3.org/1999/xlink" viewBox="0 0 176 188" shape-rendering="geometricPrecision" text-rendering="geometricPrecision"><style><![CDATA[#eGjCJrOx9Ez5_to {animation: eGjCJrOx9Ez5_to__to 8000ms linear infinite normal forwards}@keyframes eGjCJrOx9Ez5_to__to { 0% {transform: translate(170.912513px,-12.498673px)} 6.25% {transform: translate(170.912513px,-12.498673px)} 18.75% {transform: translate(87.999829px,41.710192px)} 21.25% {transform: translate(87.999829px,96.766815px);animation-timing-function: cubic-bezier(0,1.005,0.09,1.005)} 91.25% {transform: translate(87.999829px,96.766815px)} 93.75% {transform: translate(87.999829px,76.77px)} 100% {transform: translate(87.999829px,76.77px)}} #eGjCJrOx9Ez5 {animation: eGjCJrOx9Ez5_c_o 8000ms linear infinite normal forwards}@keyframes eGjCJrOx9Ez5_c_o { 0% {opacity: 1} 91.25% {opacity: 1} 93.75% {opacity: 0} 100% {opacity: 0}} #eGjCJrOx9Ez6_to {animation: eGjCJrOx9Ez6_to__to 8000ms linear infinite normal forwards}@keyframes eGjCJrOx9Ez6_to__to { 0% {transform: translate(171.722515px,-11.408675px)} 25% {transform: translate(171.722515px,-11.408675px)} 37.5% {transform: translate(88.813029px,42.799384px);animation-timing-function: cubic-bezier(0.19,1,0.22,1)} 40% {transform: translate(87.999831px,77.684256px)} 86.25% {transform: translate(87.999831px,77.684256px)} 88.75% {transform: translate(87.999831px,57.68px)} 100% {transform: translate(87.999831px,57.68px)}} #eGjCJrOx9Ez6 {animation: eGjCJrOx9Ez6_c_o 8000ms linear infinite normal forwards}@keyframes eGjCJrOx9Ez6_c_o { 0% {opacity: 1} 86.25% {opacity: 1} 88.75% {opacity: 0} 100% {opacity: 0}} #eGjCJrOx9Ez7_to {animation: eGjCJrOx9Ez7_to__to 8000ms linear infinite normal forwards}@keyframes eGjCJrOx9Ez7_to__to { 0% {transform: translate(66.486855px,-189.775085px)} 42.5% {transform: translate(66.486855px,-189.775085px)} 55% {transform: translate(-16.422551px,-135.571666px)} 56.25% {transform: translate(-16.422552px,-116.868393px);animation-timing-function: cubic-bezier(0.19,1,0.22,1)} 82.5% {transform: translate(-16.422552px,-116.868393px)} 85% {transform: translate(-16.422552px,-126.87px)} 100% {transform: translate(-16.422552px,-126.87px)}} #eGjCJrOx9Ez7 {animation: eGjCJrOx9Ez7_c_o 8000ms linear infinite normal forwards}@keyframes eGjCJrOx9Ez7_c_o { 0% {opacity: 1} 82.5% {opacity: 1} 85% {opacity: 0} 100% {opacity: 0}} #eGjCJrOx9Ez15_ts {animation: eGjCJrOx9Ez15_ts__ts 8000ms linear infinite normal forwards}@keyframes eGjCJrOx9Ez15_ts__ts { 0% {transform: translate(128.546337px,44.170999px) scale(0.024591,0.026314)} 2.5% {transform: translate(128.546337px,44.170999px) scale(1,1)} 100% {transform: translate(128.546337px,44.170999px) scale(1,1)}} #eGjCJrOx9Ez15 {animation: eGjCJrOx9Ez15_c_o 8000ms linear infinite normal forwards}@keyframes eGjCJrOx9Ez15_c_o { 0% {opacity: 1} 58.75% {opacity: 1} 62.5% {opacity: 0} 100% {opacity: 0}} #eGjCJrOx9Ez16 {animation: eGjCJrOx9Ez16_c_o 8000ms linear infinite normal forwards}@keyframes eGjCJrOx9Ez16_c_o { 0% {opacity: 0} 2.5% {opacity: 0} 3.75% {opacity: 1} 6.25% {opacity: 1} 7.5% {opacity: 0} 15% {opacity: 0} 16.25% {opacity: 1} 18.75% {opacity: 1} 20% {opacity: 0} 27.5% {opacity: 0} 28.75% {opacity: 1} 31.25% {opacity: 1} 32.5% {opacity: 0} 40% {opacity: 0} 41.25% {opacity: 1} 43.75% {opacity: 1} 45% {opacity: 0} 52.5% {opacity: 0} 53.75% {opacity: 1} 56.25% {opacity: 1} 57.5% {opacity: 0} 100% {opacity: 0}}]]></style><g id="eGjCJrOx9Ez2"><g id="eGjCJrOx9Ez3" mask="url(#eGjCJrOx9Ez11)"><g id="eGjCJrOx9Ez4" transform="matrix(1 0 0 1 0 30.385393)"><g id="eGjCJrOx9Ez5_to" transform="translate(170.912513,-12.498673)"><path id="eGjCJrOx9Ez5" d="M87.999829,47.830095C85.720481,47.830095,83.441344,48.395372,81.69479,49.525598L14.997053,92.686785C11.503939,94.947237,11.503939,98.586562,14.997053,100.84701L81.69479,144.0082C85.187901,146.26865,90.812276,146.26865,94.305387,144.0082L161.00261,100.84701C164.49572,98.586562,164.49572,94.947237,161.00261,92.686785L94.305387,49.525598C92.558833,48.395372,90.27918,47.830095,87.999829,47.830095Z" transform="translate(-87.999829,-96.766815)" paint-order="markers fill stroke" fill="rgb(255,255,255)" stroke="rgb(0,0,0)" stroke-width="3.85675" stroke-linecap="round"/></g><g id="eGjCJrOx9Ez6_to" transform="translate(171.722515,-11.408675)"><path id="eGjCJrOx9Ez6" d="M87.999829,28.747538C85.720481,28.747538,83.441344,29.312815,81.69479,30.443041L14.997053,73.604231C11.503939,75.86468,11.503939,79.504006,14.997053,81.764455L81.69479,124.92564C85.187901,127.18609,90.812276,127.18609,94.305387,124.92564L161.00261,81.764455C164.49572,79.504006,164.49572,75.86468,161.00261,73.604231L94.305387,30.443041C92.558833,29.312815,90.27918,28.747538,87.999829,28.747538Z" transform="translate(-87.999831,-77.684256)" paint-order="markers fill stroke" fill="rgb(255,255,255)" stroke="rgb(0,0,0)" stroke-width="3.85675" stroke-linecap="round"/></g><g id="eGjCJrOx9Ez7_to" transform="translate(66.486855,-189.775085)"><g id="eGjCJrOx9Ez7" transform="scale(0.9945,0.999996) translate(0,0)"><path id="eGjCJrOx9Ez8" d="M184.87483,52.018295L267.27006,52.018295C271.58529,52.018295,275.0593,55.492296,275.0593,59.807535L275.0593,142.20276C275.0593,146.518,271.58529,149.992,267.27006,149.992L184.87483,149.992C180.55959,149.992,177.08559,146.518,177.08559,142.20276L177.08559,59.807535C177.08559,55.492296,180.55959,52.018295,184.87483,52.018295Z" transform="matrix(0.839548 0.543285 -0.839548 0.543285 0 0.000001)" fill="rgb(0,0,0)" stroke="none" stroke-width="0.842247" stroke-dasharray="0.842247,5.05349"/><text id="eGjCJrOx9Ez9" dx="0" dy="0" font-family="&quot;Bitstream Vera Serif&quot;" font-size="76.9546" transform="matrix(0.87901 0.568822 -0.87901 0.568821 56.90121 177.798105)" fill="rgb(255,255,255)" stroke="none" stroke-width="1.92387"><tspan id="eGjCJrOx9Ez10" x="0" y="0" font-family="Bitstream Vera Serif" font-size="76.9546" fill="rgb(255,255,255)" stroke="none" stroke-width="1.92387"><![CDATA[P]]></tspan></text></g></g></g><mask id="eGjCJrOx9Ez11" mask-type="luminance"><path id="eGjCJrOx9Ez12" d="M9,9.073353L167,9.073353L167,148.7072L9,148.7072Z" transform="matrix(1.112224 0 0 1.455767 -9.875712 -35.955583)" fill="rgb(255,255,255)" stroke="none" stroke-width="1"/><rect id="eGjCJrOx9Ez13" width="131.283" height="131.282" rx="0" ry="0" transform="matrix(0.839548 0.543285 -0.839548 0.543285 186.489633 -58.830624)" fill="rgb(0,0,0)" stroke="none" stroke-width="1.12859" stroke-dasharray="1.12859,6.77156"/></mask></g><path id="eGjCJrOx9Ez14" display="none" d="M184.87483,52.018295L267.27006,52.018295C271.58529,52.018295,275.0593,55.492296,275.0593,59.807535L275.0593,142.20276C275.0593,146.518,271.58529,149.992,267.27006,149.992L184.87483,149.992C180.55959,149.992,177.08559,146.518,177.08559,142.20276L177.08559,59.807535C177.08559,55.492296,180.55959,52.018295,184.87483,52.018295Z" transform="matrix(0.839548 0.543285 -1.903534 1.231808 113.293919 -189.756829)" fill="rgba(255,0,0,0.41)" stroke="none" stroke-width="0.842247" stroke-dasharray="0.842247,5.05349"/></g><g id="eGjCJrOx9Ez15_ts" transform="translate(128.546337,44.170999) scale(0.024591,0.026314)"><path id="eGjCJrOx9Ez15" d="M90.943356,15.902609L176.448669,71.961665" transform="translate(-132.568669,-43.439665)" fill="none" stroke="rgb(0,0,0)" stroke-width="5" stroke-linecap="round"/></g><path id="eGjCJrOx9Ez16" d="M143.256046,25.398995C143.256046,25.398995,149.635846,29.399029,149.635846,29.399029L143.256046,25.398995Z" transform="matrix(1 0 0 1 16.816435 24.799625)" opacity="0" fill="none" stroke="rgb(0,0,0)" stroke-width="5" stroke-linecap="round" stroke-linejoin="round"/></svg>