<?xml version="1.0" standalone="no"?>
<!DOCTYPE svg PUBLIC "-//W3C//DTD SVG 20010904//EN"
 "http://www.w3.org/TR/2001/REC-SVG-20010904/DTD/svg10.dtd">
<svg version="1.0" xmlns="http://www.w3.org/2000/svg"
 width="512.000000pt" height="512.000000pt" viewBox="0 0 512.000000 512.000000"
 preserveAspectRatio="xMidYMid meet">
<metadata>
Created by potrace 1.14, written by Peter Selinger 2001-2017
</metadata>
<g transform="translate(0.000000,512.000000) scale(0.100000,-0.100000)"
fill="#000000" stroke="none">
<path d="M2498 4559 c-32 -5 -72 -16 -90 -25 -66 -34 -2034 -1318 -2065 -1347
-43 -40 -58 -86 -44 -130 14 -42 44 -70 146 -137 44 -29 84 -56 88 -60 5 -4
-24 -29 -65 -55 -129 -83 -158 -121 -158 -205 0 -88 24 -116 175 -214 l96 -62
-113 -75 c-130 -86 -158 -122 -158 -204 0 -106 -50 -68 960 -723 1134 -735
1106 -717 1170 -736 68 -20 172 -20 240 0 64 19 36 1 1170 736 1010 655 960
617 960 723 0 82 -28 118 -158 204 l-113 75 96 62 c151 98 175 126 175 214 0
84 -29 122 -158 205 -41 26 -70 51 -65 55 4 4 44 31 88 60 102 67 132 95 146
137 14 44 -1 90 -44 130 -31 29 -1999 1313 -2063 1346 -18 9 -51 19 -75 22
-24 4 -53 8 -64 9 -11 2 -46 -1 -77 -5z m583 -854 c194 -126 379 -254 411
-283 108 -101 146 -228 97 -328 -45 -94 -202 -203 -342 -239 -184 -46 -390
-20 -576 73 -31 15 -131 76 -222 135 -92 59 -169 107 -173 107 -4 0 -78 -46
-164 -102 -86 -56 -201 -130 -255 -165 l-98 -64 108 -71 107 -70 -29 -23 c-70
-57 -44 -67 -370 145 -162 105 -295 195 -295 198 0 4 22 21 49 39 l48 31 91
-60 91 -60 605 394 c333 216 605 396 606 399 0 3 -38 30 -85 60 -47 29 -85 56
-85 59 0 12 106 68 116 62 6 -4 170 -110 365 -237z m-1554 -1487 c520 -338
896 -577 922 -585 57 -17 165 -17 222 0 26 8 398 244 909 577 476 309 872 567
881 573 12 7 40 -6 123 -62 116 -78 135 -104 114 -149 -9 -19 -293 -208 -983
-655 -533 -345 -992 -640 -1020 -655 -43 -22 -62 -26 -135 -26 -73 0 -92 4
-135 26 -27 15 -486 310 -1020 655 -690 447 -974 636 -983 655 -21 45 -1 71
110 147 57 38 106 70 110 70 3 1 401 -256 885 -571z m18 -517 c446 -289 836
-536 868 -549 83 -33 211 -33 294 0 42 18 1289 816 1704 1091 26 17 26 17 135
-53 169 -110 187 -136 132 -193 -35 -37 -1961 -1285 -2015 -1306 -41 -16 -165
-16 -206 0 -54 21 -1980 1269 -2015 1306 -55 57 -37 83 132 193 109 70 109 70
135 53 14 -9 391 -253 836 -542z"/>
<path d="M2692 3446 c-156 -101 -288 -188 -294 -194 -12 -12 255 -187 336
-220 159 -65 325 -45 482 57 112 72 165 157 145 229 -18 60 -64 103 -223 208
-87 57 -159 104 -161 104 -1 0 -130 -83 -285 -184z"/>
</g>
</svg>
